<svg width="364" height="212" viewBox="0 0 364 212" fill="none" xmlns="http://www.w3.org/2000/svg">
<path d="M0 211.031L45.4264 210.821L90.8528 210.745L181.705 210.601L272.557 210.744L317.983 210.82L363.409 211.031L317.983 211.242L272.557 211.317L181.705 211.46L90.8528 211.317L45.4264 211.24L0 211.031Z" fill="#A8BEC9"/>
<path d="M41.4299 211.031H151.059L129.2 83.8784H47.223L41.4299 211.031Z" fill="#DBDBDB"/>
<path d="M41.4299 211.031H51.0429L56.4371 83.8784H47.223L41.4299 211.031Z" fill="#A6A6A6"/>
<path d="M127.448 103.7C141.16 132.119 173.681 179.086 187.299 166.847C207.669 148.541 220.666 108.958 225.815 92.9592C228.701 83.9925 183.068 70.4123 180.523 78.5484C176.906 90.1165 171.402 114.22 167.915 117.709C166.077 119.546 150.704 99.1702 139.207 89.6253C122.632 75.8659 123.068 94.6205 127.448 103.7Z" fill="#EB9481"/>
<path d="M235.484 73.6601C233.539 83.3868 221.781 101.723 217.244 105.056C212.706 108.388 180.77 90.3483 180.07 84.6138C179.369 78.8793 188.55 45.7251 196.303 39.2185C204.056 32.7119 237.498 63.5835 235.484 73.6601Z" fill="#EB9481"/>
<path d="M180.75 77.9374C180.75 77.9374 178.557 65.2224 172.999 55.3078C168.324 46.9719 160.441 35.1211 164.829 32.4395C173.839 26.9342 193.488 56.4952 193.488 56.4952C193.488 56.4952 200.063 70.9285 191.62 77.174C186.324 81.0903 180.75 77.9374 180.75 77.9374Z" fill="#EB9481"/>
<path d="M186.389 51.6224C188.174 56.565 192.977 51.6319 192.977 51.6319C192.977 51.6319 187.774 60.3987 191.585 64.7838C195.27 68.9991 200.862 62.8355 201.269 62.3995C200.997 62.8657 196.427 71.0465 200.71 75.0585C205.165 79.2239 209.717 72.0719 210.01 71.6092C209.892 72.1297 208.45 79.0395 212.396 81.3471C219.181 85.3092 223.355 67.7428 228.907 64.6364C228.907 64.6364 235.245 73.4446 235.483 73.6609C235.483 73.6609 239.796 57.0295 235.189 49.7758C232.76 45.9516 228.717 47.4604 228.717 47.4604C228.717 47.4604 230.7 42.2516 227.428 38.9875C225.743 37.3167 221.572 38.5239 221.572 38.5239C221.572 38.5239 222.986 34.287 219.893 31.5649C217.432 29.384 213.63 30.935 213.63 30.935C213.63 30.935 213.1 26.2371 209.862 24.8265C203.338 21.9649 182.576 41.0349 186.389 51.6224Z" fill="#EB9481"/>
<path d="M212.99 31.0866C213.065 31.0289 212.998 30.9134 212.913 30.96C204.555 35.5657 196.782 43.1864 192.689 51.8705C192.555 52.1557 192.959 52.4969 193.167 52.2117C199.097 44.0679 205.009 37.3132 212.99 31.0866Z" fill="#263238"/>
<path d="M221.636 38.386C221.723 38.3188 221.612 38.174 221.509 38.2318C212.923 43.0236 204.404 51.849 200.865 62.4141C200.744 62.7769 200.998 63.2232 201.169 62.8174C204.056 55.9696 214.423 43.9542 221.636 38.386Z" fill="#263238"/>
<path d="M210.017 72.4302C213.802 62.4303 220.412 54.6501 228.349 47.6343C228.452 47.5429 228.313 47.4059 228.205 47.4585C223.387 49.8324 218.794 54.8311 215.548 59.0232C212.441 63.0386 210.443 67.2868 209.667 72.2966C209.637 72.4922 209.936 72.6439 210.017 72.4302Z" fill="#263238"/>
<path d="M192.801 51.6645C192.64 52.0066 193.317 51.8653 193.167 52.2125C192.536 53.6722 189.494 62.7845 192.277 64.7845C194.512 66.3821 198.208 64.489 199.342 63.205L202.195 59.9763L200.638 64.0021C199.958 65.7591 199.487 67.71 199.417 69.5815C199.343 71.4488 199.766 73.3299 201.004 74.4871C202.273 75.7219 203.99 76.0407 205.489 75.1472C207.007 74.3251 208.317 72.7637 209.261 71.1989L211.901 66.8285L210.841 71.7995C210.554 73.1463 210.417 74.6224 210.488 76.0123C210.567 77.3996 210.877 78.7904 211.642 79.7779C212.388 80.749 213.677 81.3212 214.817 81.0515C216.02 80.7852 217.147 79.8029 218.119 78.7688C220.082 76.6336 221.612 74.0477 223.256 71.5608C224.07 70.3079 224.886 69.0482 225.763 67.828C226.652 66.6363 227.579 65.3687 228.907 64.6354C227.67 65.4954 226.911 66.8224 226.107 68.0572C225.334 69.3273 224.621 70.6363 223.905 71.9477C222.472 74.5707 221 77.1962 219.041 79.5848C218.032 80.7317 216.895 81.9407 215.167 82.4474C213.38 82.9558 211.479 82.1173 210.413 80.7481C209.318 79.3556 208.977 77.6788 208.854 76.1149C208.754 74.5216 208.868 72.9956 209.178 71.4169L210.756 72.0175C209.655 73.8745 208.345 75.5599 206.346 76.7258C205.36 77.2936 204.089 77.5961 202.872 77.372C201.647 77.1523 200.626 76.5302 199.796 75.7219C198.078 74.0347 197.669 71.5936 197.785 69.5109C197.909 67.3679 198.427 65.367 199.223 63.3946L200.519 64.1917C199.021 65.7746 195.12 68.3416 191.344 66.2994C186.821 62.9026 191.772 53.3474 192.801 51.6645Z" fill="#263238"/>
<path d="M192.976 51.6319C192.017 52.2592 191.025 52.7806 190.074 53.0382C189.124 53.3028 188.233 53.1003 187.654 52.529C187.059 51.968 186.751 50.959 186.546 49.9327C186.371 48.8892 186.24 47.7828 186.149 46.6342C185.675 47.6914 185.408 48.8392 185.401 50.0292C185.403 51.1994 185.615 52.5307 186.63 53.5845C187.17 54.0679 187.82 54.3859 188.522 54.4746C189.227 54.541 189.905 54.3919 190.471 54.111C191.618 53.5656 192.426 52.6453 192.976 51.6319Z" fill="#263238"/>
<path d="M177.795 79.4952L225.786 110.942C225.786 110.942 199.315 169.985 181.937 170.318C164.56 170.65 138.235 127.727 129.012 109.118C119.788 90.5084 124.54 74.3785 142.533 91.0866C160.635 107.896 166.996 114.672 167.558 114.425C168.648 113.941 177.795 79.4952 177.795 79.4952Z" fill="#4AA09B"/>
<path d="M225.787 110.945C225.787 110.945 207.436 151.891 191.254 165.772C188.013 168.563 184.852 170.262 181.94 170.313C164.563 170.65 138.233 127.725 129.009 109.122C123.296 97.5992 122.947 87.0263 127.779 84.6179C130.752 83.1289 135.686 84.7213 142.538 91.0874C160.634 107.894 166.998 114.671 167.561 114.421C168.648 113.942 177.802 79.4995 177.802 79.4995L225.787 110.945Z" fill="#4AA09B"/>
<path d="M214.811 116.721C213.54 115.729 212.254 114.762 210.962 113.796C208.347 111.84 205.725 109.897 203.097 107.961C197.872 104.111 192.547 100.415 187.176 96.7765C184.128 94.7102 181.134 92.5258 177.997 90.5939C177.843 90.4999 177.698 90.7059 177.835 90.8205C180.341 92.9092 183.015 94.8075 185.609 96.7842C188.208 98.7644 190.785 100.763 193.42 102.695C198.651 106.532 203.945 110.276 209.282 113.963C210.779 114.997 212.247 116.095 213.788 117.061C214.579 117.558 215.329 118.114 216.128 118.6C216.928 119.086 217.763 119.513 218.549 120.023C218.635 120.079 218.722 119.958 218.641 119.893C217.343 118.862 216.121 117.744 214.811 116.721Z" fill="#263238"/>
<path d="M167.931 113.346C166.186 118.213 165.016 123.279 163.927 128.327C163.386 130.832 162.972 133.363 162.567 135.893C162.17 138.379 161.835 140.953 161.779 143.473C161.778 143.567 161.913 143.568 161.936 143.486C162.642 141.041 163.148 138.498 163.641 136.003C164.138 133.49 164.687 130.989 165.178 128.475C166.159 123.448 167.336 118.454 168.171 113.4C168.199 113.238 167.983 113.2 167.931 113.346Z" fill="#263238"/>
<path opacity="0.1" d="M191.254 165.773C188.013 168.564 184.852 170.262 181.94 170.314C164.563 170.651 138.233 127.726 129.009 109.122C123.296 97.5995 122.947 87.0266 127.779 84.6182L191.254 165.773Z" fill="black"/>
<path d="M163.504 211.031H50.4714C49.9725 208.78 67.7508 109.735 105.871 81.856C114.328 75.6708 129.332 79.6484 133.506 85.6621C154.482 115.892 163.504 211.031 163.504 211.031Z" fill="#FFDE7D"/>
<path d="M103.366 82.5987C103.366 82.5987 113.347 126.437 114.376 130.22C115.405 134.003 119.098 211.031 119.098 211.031H49.4463C49.4463 211.031 65.1178 112.795 103.366 82.5987Z" fill="#4AA09B"/>
<path d="M133.506 85.6628C133.506 85.6628 137.867 119.231 138.389 121.213C138.912 123.194 153.188 211.03 153.188 211.03H164.041C164.041 211.03 154.579 109.467 133.506 85.6628Z" fill="#4AA09B"/>
<path d="M90.0075 95.3132C69.6347 124.001 40.1202 175.37 53.7219 184.516C76.0844 199.551 137.601 203.582 151.662 203.93C157.731 204.08 166.006 163.726 161.519 159.037C157.031 154.347 92.6348 156.87 91.8102 152.982C91.3431 150.778 99.2181 130.447 103.209 106.055C107.809 77.9304 95.7507 87.2263 90.0075 95.3132Z" fill="#EB9481"/>
<path d="M150.715 156.806C150.715 156.806 169.084 154.913 181.153 154.24C187.887 153.865 199.49 154.252 204.563 156.239C212.152 159.211 241.989 176.488 237.957 183.813C234.306 190.444 210.555 172.345 210.555 172.345C210.555 172.345 236.135 188.489 230.271 195.665C224.407 202.84 200.292 178.823 200.292 178.823C200.292 178.823 226.203 196 218.985 202.443C213.53 207.312 190.463 186.79 190.463 186.79C190.463 186.79 212.632 201.708 207.238 206.957C201.278 212.757 178.798 195.15 178.798 195.15C162.842 206.184 150.731 204.911 142.224 202.98C140.165 202.511 150.715 156.806 150.715 156.806Z" fill="#EB9481"/>
<path d="M202.067 166.195C205.14 167.982 208.263 169.771 211.167 171.826C214.071 173.88 216.906 176.038 219.606 178.354C226.228 184.033 229.485 188.626 229.253 188.364C223.763 182.174 213.482 174.657 210.576 172.602C207.678 170.552 204.883 168.356 201.985 166.302C201.912 166.251 201.994 166.152 202.067 166.195Z" fill="#263238"/>
<path d="M194.457 176.545C198.283 178.997 202.17 181.292 205.889 183.914C209.589 186.523 214.652 190.357 218.164 193.214C218.434 193.433 218.231 193.915 217.95 193.705C214.328 190.99 208.985 187.318 205.332 184.646C201.691 181.983 198.126 179.159 194.392 176.631C194.334 176.592 194.399 176.508 194.457 176.545Z" fill="#263238"/>
<path d="M186.328 184.255C192.366 187.704 197.762 192.262 202.947 196.861C203.204 197.09 202.927 197.155 202.649 196.936C197.204 192.641 192.963 189.233 186.208 184.466C186.102 184.391 186.201 184.182 186.328 184.255Z" fill="#263238"/>
<path d="M150.746 154.403L133.493 206.471C133.493 206.471 54.9002 196.462 49.0424 182.265C43.1855 168.068 66.6605 125.046 86.0992 98.6063C105.218 72.6006 106.838 90.179 103.284 109.231C99.7303 128.283 93.0375 150.481 94.1646 151.986C95.2926 153.491 150.746 154.403 150.746 154.403Z" fill="#4AA09B"/>
<path d="M123.894 199.058C124.508 197.568 125.093 196.067 125.674 194.564C126.853 191.519 128.018 188.47 129.176 185.417C131.476 179.348 133.601 173.225 135.661 167.073C136.83 163.58 138.127 160.109 139.143 156.569C139.192 156.396 138.954 156.31 138.881 156.474C137.544 159.45 136.435 162.536 135.231 165.566C134.023 168.602 132.794 171.622 131.642 174.681C129.356 180.752 127.176 186.859 125.062 192.991C124.469 194.711 123.807 196.422 123.292 198.166C123.027 199.061 122.693 199.933 122.441 200.833C122.188 201.735 122.001 202.653 121.722 203.548C121.691 203.645 121.832 203.696 121.872 203.602C122.515 202.073 123.262 200.596 123.894 199.058Z" fill="#263238"/>
<path d="M134.867 202.891L133.646 206.528L133.607 206.642L133.476 206.63C126.059 205.955 118.672 205.015 111.311 203.881C103.954 202.73 96.6221 201.392 89.3417 199.783C82.0699 198.153 74.8266 196.308 67.7668 193.844C64.239 192.614 60.7552 191.219 57.4274 189.487C55.773 188.605 54.1582 187.636 52.664 186.495C51.1914 185.352 49.786 183.991 49.0449 182.263C49.9454 183.908 51.4163 185.1 52.9216 186.138C54.458 187.155 56.103 188 57.785 188.757C61.1473 190.281 64.6501 191.487 68.1778 192.598C75.2514 194.778 82.4646 196.524 89.7096 198.112C96.9564 199.701 104.245 201.123 111.551 202.462C118.856 203.806 126.177 205.098 133.514 206.31L133.344 206.412L134.867 202.891Z" fill="#263238"/>
<path d="M150.075 156.435L150.66 154.374L150.747 154.497C142.979 154.699 135.211 154.79 127.442 154.715C119.673 154.647 111.907 154.482 104.133 154.067C102.189 153.949 100.246 153.822 98.2942 153.633C97.3153 153.534 96.3442 153.435 95.3377 153.254C95.0844 153.208 94.8328 153.158 94.5544 153.082C94.4252 153.051 94.2675 152.996 94.1055 152.933C94.0349 152.909 93.8892 152.825 93.791 152.762C93.7643 152.756 93.6109 152.622 93.5282 152.501C93.4825 152.438 93.4429 152.371 93.411 152.304C93.3834 152.243 93.3912 152.238 93.38 152.202C93.2585 151.653 93.33 151.47 93.33 151.167C93.3584 150.912 93.3774 150.644 93.4162 150.4C94.0254 146.475 94.9207 142.723 95.8228 138.931C97.6324 131.371 99.6651 123.871 101.843 116.411L97.118 139.219C96.3717 143.012 95.517 146.835 95.0198 150.597C94.987 150.833 94.9793 151.051 94.9569 151.278C94.9431 151.459 94.9612 151.765 94.9457 151.694C94.9422 151.686 94.9448 151.715 94.9345 151.678C94.9224 151.635 94.9017 151.591 94.8759 151.551C94.8336 151.474 94.7104 151.397 94.7432 151.414C94.7526 151.406 94.7061 151.396 94.7509 151.411C94.8164 151.433 94.8871 151.462 94.9939 151.486C95.1835 151.538 95.4084 151.582 95.6333 151.62C96.538 151.777 97.5006 151.872 98.4536 151.961C100.367 152.132 102.299 152.247 104.231 152.35C108.096 152.564 111.971 152.734 115.846 152.872L127.477 153.319C135.233 153.594 142.992 153.94 150.751 154.309L150.883 154.315L150.839 154.431L150.075 156.435Z" fill="#263238"/>
<path d="M103.136 121.103C102.715 122.471 102.101 123.746 101.419 124.983C100.718 126.205 99.9577 127.419 98.9297 128.424C99.5337 127.133 100.171 125.895 100.856 124.667C101.551 123.447 102.264 122.237 103.136 121.103Z" fill="#263238"/>
<path d="M128.026 101.083C121.47 102.949 109.636 93.3364 104.772 85.3322C104.442 84.7815 105.76 62.1683 105.557 57.66C105.511 56.7345 134.143 63.2506 134.143 63.2506C134.143 63.2506 131.79 72.8265 132.194 80.6842C132.235 81.34 134.362 99.2742 128.026 101.083Z" fill="#EB9481"/>
<path d="M105.161 71.8209C118.544 81.2701 131.58 77.6415 132.167 77.4718C132.376 70.4404 134.145 63.2479 134.145 63.2479C134.145 63.2479 105.509 56.731 105.558 57.6582C105.651 59.7779 105.414 65.8804 105.161 71.8209Z" fill="#263238"/>
<path d="M132.629 41.6876C133.363 48.3605 138.703 53.2471 144.557 52.6034C150.411 51.9597 154.562 46.0287 153.828 39.3567C153.094 32.6847 147.754 27.7972 141.9 28.4409C136.046 29.0845 131.895 35.0155 132.629 41.6876Z" fill="#455A64"/>
<path d="M129.241 42.4864C130.057 49.909 135.999 55.3462 142.51 54.6302C149.022 53.9141 153.64 47.3162 152.824 39.8936C152.008 32.471 146.066 27.0338 139.555 27.7499C133.043 28.4659 128.425 35.0638 129.241 42.4864Z" fill="#C7C7C7"/>
<path d="M101.604 23.6908C98.4801 33.7079 103.604 62.7313 110.702 69.2387C120.993 78.6724 137.93 79.672 145.967 67.2809C153.758 55.2708 146.411 17.5642 138.474 11.6419C126.783 2.91816 106.217 8.89309 101.604 23.6908Z" fill="#EB9481"/>
<path d="M125.726 41.9127C125.697 41.8421 125.592 42.0342 125.61 42.1144C126.045 44.0523 126.217 46.3452 124.577 47.3293C124.526 47.3603 124.551 47.4568 124.614 47.4353C126.708 46.7201 126.449 43.6792 125.726 41.9127Z" fill="#263238"/>
<path d="M123.596 40.211C120.414 40.573 121.373 46.9098 124.32 46.5737C127.221 46.2429 126.263 39.9069 123.596 40.211Z" fill="#263238"/>
<path d="M137.01 40.3894C137.014 40.3118 137.177 40.4592 137.188 40.5393C137.422 42.5117 138.023 44.7306 139.897 45.114C139.956 45.1261 139.965 45.226 139.898 45.226C137.685 45.2493 136.916 42.2954 137.01 40.3894Z" fill="#263238"/>
<path d="M138.454 38.074C141.574 37.3571 142.78 43.6508 139.889 44.3152C137.043 44.9692 135.838 38.6755 138.454 38.074Z" fill="#263238"/>
<path d="M120.657 37.6913C121.486 37.3431 122.194 36.8847 122.98 36.4556C123.865 35.9713 124.621 35.6775 125.109 34.7434C125.37 34.2428 125.111 33.4535 124.648 33.1545C123.57 32.4565 122.338 32.7796 121.247 33.3191C120.063 33.9041 119.301 34.6573 118.754 35.8559C118.224 37.0174 119.562 38.1497 120.657 37.6913Z" fill="#263238"/>
<path d="M140.421 34.5125C139.52 34.5022 138.692 34.3428 137.804 34.2403C136.8 34.1248 135.99 34.136 135.188 33.4535C134.757 33.0873 134.702 32.2592 135.018 31.8068C135.755 30.7556 137.018 30.5919 138.231 30.6815C139.548 30.7789 140.537 31.1907 141.494 32.0964C142.422 32.9744 141.607 34.5272 140.421 34.5125Z" fill="#263238"/>
<path d="M126.802 60.3124C127.341 60.701 127.907 61.2628 128.628 61.2146C129.32 61.1689 130.074 60.7389 130.663 60.4012C130.721 60.3684 130.794 60.4244 130.764 60.4891C130.368 61.3197 129.368 61.9539 128.434 61.9315C127.521 61.9108 126.966 61.2094 126.628 60.4287C126.58 60.321 126.723 60.2564 126.802 60.3124Z" fill="#263238"/>
<path d="M127.976 54.1237C129.333 55.661 131.089 56.3486 132.887 56.4227C133.691 56.4615 134.515 56.3641 135.307 56.1694C135.465 56.1418 135.62 56.1004 135.759 56.047C135.899 56.0082 136.026 55.972 136.179 55.916C136.403 55.8479 136.5 55.6394 136.506 55.4171L136.503 55.4024C136.491 55.3309 136.482 55.2732 136.454 55.2043C136.454 55.2043 136.454 55.2043 136.453 55.1896L136.423 55.0181C136.236 53.5007 135.742 51.225 135.742 51.225C136.336 51.418 139.343 52.259 139.179 51.4757C137.8 44.9984 136.267 37.7956 133.526 31.6414C133.446 31.4338 133.124 31.5337 133.176 31.7457C134.254 38.0231 136.43 44.0678 137.614 50.3564C136.665 50.1513 135.103 49.7403 134.315 49.8765C134.11 49.9704 135.349 54.2581 135.378 54.9466C135.378 54.9466 135.383 54.9759 135.376 55.0207C132.887 55.729 130.857 55.2517 128.134 53.9195C127.97 53.8299 127.835 53.9858 127.976 54.1237Z" fill="#263238"/>
<path d="M134.3 55.5377C134.3 55.5377 133.233 57.548 131.498 58.4786C130.858 58.8233 130.145 59.0292 129.351 58.9413C127.722 58.7664 127.465 57.3343 127.566 56.0598C127.646 55.012 127.984 54.0693 127.984 54.0693C127.984 54.0693 130.595 55.866 134.3 55.5377Z" fill="#263238"/>
<path d="M131.496 58.4786C130.857 58.8233 130.144 59.0292 129.35 58.9413C127.72 58.7664 127.464 57.3343 127.565 56.0598C129.272 55.978 131.107 56.8664 131.496 58.4786Z" fill="#FF99BA"/>
<path d="M102.437 49.1673C109.682 47.7644 108.589 34.3351 108.589 34.3351C108.589 34.3351 120.651 29.9292 120.68 20.2146C120.68 20.2146 133.928 25.5131 142.579 20.3775C151.228 15.2418 147.282 5.10666 145.825 3.05412C144.37 1.00158 140.012 6.15447 140.012 6.15447C140.012 6.15447 138.293 0.320855 136.589 0.0166794C134.885 -0.287496 133.843 3.6392 133.843 3.6392C133.843 3.6392 121.111 1.89774 110.309 4.27082C99.5072 6.64391 96.2104 18.6127 96.2104 18.6127C96.2104 18.6127 90.6379 20.9488 89.5289 25.3744C88.4182 29.8009 97.8183 50.0617 102.437 49.1673Z" fill="#263238"/>
<path d="M105.675 34.9829C115.546 34.4314 120.717 26.8202 120.363 17.3295C120.359 17.2124 120.527 17.1917 120.546 17.3097C121.902 25.9542 115.698 37.0544 105.664 35.4258C105.422 35.387 105.417 34.9976 105.675 34.9829Z" fill="#263238"/>
<path d="M96.4372 18.3887C96.544 18.3413 96.6319 18.4999 96.5371 18.5671C94.0804 20.3284 91.1714 21.8518 89.7436 24.6678C88.0185 28.0689 89.2507 31.8663 90.7457 35.077C93.0611 40.0498 97.0438 46.3246 102.297 48.5081C102.6 48.6339 102.395 49.0768 102.092 48.9691C95.8615 46.7304 90.9301 38.5444 88.9887 32.5402C86.8138 25.819 90.3545 21.0832 96.4372 18.3887Z" fill="#263238"/>
<path d="M131.737 20.8971C136.463 22.6463 142.781 21.5597 146.383 17.8648C150.771 13.3633 148.588 7.73048 145.47 3.28159C145.317 3.06272 145.614 2.73959 145.822 2.94209C149.634 6.65251 151.113 13.1057 147.67 17.5727C144.111 22.1896 136.654 23.4769 131.444 21.5554C131.008 21.396 131.303 20.7359 131.737 20.8971Z" fill="#263238"/>
<path d="M107.654 47.3554C107.654 47.3554 100.968 38.0724 96.747 40.4696C92.5256 42.8668 97.6458 56.3867 102.665 58.1756C107.685 59.9644 109.432 55.3501 109.432 55.3501L107.654 47.3554Z" fill="#EB9481"/>
<path d="M98.3111 44.3085C98.231 44.3024 98.2172 44.4153 98.287 44.4429C101.809 45.8121 103.698 49.0331 105.035 52.3816C103.975 51.1003 102.548 50.4101 100.829 51.6741C100.739 51.7405 100.828 51.8827 100.926 51.8603C102.357 51.5328 103.395 51.7663 104.38 52.9021C105.078 53.706 105.56 54.728 106.065 55.6603C106.233 55.9714 106.797 55.7956 106.672 55.4371C106.663 55.4104 106.652 55.3829 106.643 55.357C106.669 50.89 103.111 44.691 98.3111 44.3085Z" fill="#263238"/>
<path d="M100.356 40.7986C100.356 40.7986 96.7393 26.386 99.5553 17.5649C102.69 7.74513 115.636 -0.984617 133.844 3.64005C133.844 3.64005 112.97 4.21652 105.44 17.1634C101.977 23.1176 105.298 40.3048 105.298 40.3048L100.356 40.7986Z" fill="#C7C7C7"/>
<path d="M115.355 45.6972C116.776 53.1172 112.65 60.1433 106.14 61.3893C99.6302 62.6362 93.2012 57.6307 91.7803 50.2107C90.3594 42.7907 94.4851 35.7645 100.994 34.5177C107.505 33.2717 113.934 38.2763 115.355 45.6972Z" fill="#C7C7C7"/>
<path d="M111.84 45.9334C113.117 52.6037 109.409 58.919 103.557 60.0392C97.7057 61.1594 91.9264 56.6605 90.6493 49.991C89.3723 43.3216 93.081 37.0054 98.9319 35.8852C104.784 34.7651 110.563 39.2639 111.84 45.9334Z" fill="#455A64"/>
<path d="M262.43 206.433H147.418V211.591H262.43V206.433Z" fill="#E0E0E0"/>
<path d="M262.43 206.433H204.542V211.591H262.43V206.433Z" fill="#37474F"/>
<path d="M208.055 211.587H320.143L334.798 135.46H222.71L208.055 211.587Z" fill="#ACAFB4"/>
<path d="M212.615 211.587H324.703L339.358 135.46H227.27L212.615 211.587Z" fill="#E0E0E0"/>
<path d="M269.163 173.524C268.833 177.292 271.621 180.347 275.389 180.347C279.157 180.347 282.479 177.292 282.809 173.524C283.139 169.756 280.351 166.701 276.583 166.701C272.815 166.701 269.493 169.756 269.163 173.524Z" fill="white"/>
</svg>
